<svg xmlns="http://www.w3.org/2000/svg" width="62.14mm" height="41.95mm" viewBox="0 0 176.15 118.93">
  <defs>
    <style>
      .cls-1 {
        fill: #4e4697;
      }
    </style>
  </defs>
  <g id="Capa_2" data-name="Capa 2">
    <g id="Capa_1-2" data-name="Capa 1">
      <path class="cls-1" d="M69.57,118.92a28.68,28.68,0,0,1-19.14-7.72c-2.32-2.14-4.55-4.39-6.78-6.62Q27,87.92,10.31,71.23c-1.87-1.87-3.75-3.72-5.53-5.67C0,60.29-1.12,54.22,1.09,47.51A17.29,17.29,0,0,1,15,35.21c6.81-1.37,12.52.75,17.35,5.58l34.95,35a4.73,4.73,0,0,0,7,0q35-35,70-70c7.22-7.22,17.84-7.72,25.49-1.25a18.52,18.52,0,0,1,1,27.11l-56,56c-7.24,7.24-14.42,14.54-21.7,21.73a32.33,32.33,0,0,1-22.63,9.54C70.13,118.93,69.85,118.92,69.57,118.92Z"/>
    </g>
  </g>
</svg>
