<svg xmlns="http://www.w3.org/2000/svg" width="45.49mm" height="45.52mm" viewBox="0 0 128.94 129.02">
  <defs>
    <style>
      .cls-1 {
        fill: #4e4697;
      }
    </style>
  </defs>
  <g id="Capa_2" data-name="Capa 2">
    <g id="Capa_1-2" data-name="Capa 1">
      <path class="cls-1" d="M62.7,0h3.52c.09.08.18.2.28.22,3.53.86,5.64,3.2,7,6.46,4,9.62,8.11,19.19,12,28.85a4.19,4.19,0,0,0,3.91,3c10.51,1.34,21,2.81,31.49,4.28A9.29,9.29,0,0,1,127,57.72a32.16,32.16,0,0,1-4.15,4q-11,9.81-22,19.62a2,2,0,0,0-.7,1.4c.78,5.73,1.65,11.44,2.47,17.15.91,6.34,1.87,12.68,2.67,19a9.17,9.17,0,0,1-6.3,9.5,9.74,9.74,0,0,1-8.92-1.59c-8.2-5.6-16.43-11.18-24.62-16.79a1.45,1.45,0,0,0-2,0c-3.61,2.52-7.26,5-10.91,7.44-5,3.41-10,6.91-15.13,10.17-3.13,2-6.48,1.77-9.61-.22a8.47,8.47,0,0,1-4.27-8.28c.56-5.37,1.49-10.7,2.27-16,1-6.55,1.89-13.09,2.91-19.63a2.4,2.4,0,0,0-1-2.43C20.15,74.3,12.61,67.5,5,60.79c-2.29-2-4.28-4.11-5-7.16v-3c.05-.06.13-.12.15-.19a9.27,9.27,0,0,1,8.39-7.64l11.19-1.56c7-1,14-2,21-2.9a2.22,2.22,0,0,0,2.1-1.54Q49.1,21.71,55.42,6.67a10,10,0,0,1,3.7-5A33.64,33.64,0,0,1,62.7,0Z"/>
    </g>
  </g>
</svg>
