<svg xmlns="http://www.w3.org/2000/svg" width="153.64" height="171.71" viewBox="0 0 153.64 171.71">
  <defs>
    <style>
      .cls-1 {
        fill: #fceeaf;
        stroke: #333;
        stroke-miterlimit: 10;
        stroke-width: 6px;
      }
    </style>
  </defs>
  <g id="Capa_2" data-name="Capa 2">
    <g id="Capa_1-2" data-name="Capa 1">
      <path class="cls-1" d="M76.9,168.71c-4.94,0-8.65-2.72-10.2-7.73-4.53-14.62-9.1-29.23-13.47-43.9a11.48,11.48,0,0,0-7.77-8.21C33.71,104.73,22,100.43,10.33,96.11,3.54,93.6.82,85.76,5,79.92a13.15,13.15,0,0,1,5.8-4.31c11.5-4.41,23.08-8.6,34.69-12.7a11.49,11.49,0,0,0,7.78-8.21c4.39-14.73,9-29.42,13.53-44.1A10.45,10.45,0,0,1,80.84,3.79c3.44,1.36,5.3,4.05,6.35,7.5C91.68,26,96.25,40.68,100.71,55.4a10.28,10.28,0,0,0,6.84,7.2q17.9,6.41,35.7,13a10.86,10.86,0,0,1-.19,20.62c-11.9,4.32-23.78,8.72-35.7,13a10,10,0,0,0-6.59,6.92Q94,138.34,87.18,160.48C85.52,165.85,82,168.69,76.9,168.71Z"/>
    </g>
  </g>
</svg>
