<svg xmlns="http://www.w3.org/2000/svg" width="268" height="267.51" viewBox="0 0 268 267.51">
  <defs>
    <style>
      .cls-1 {
        fill: #333;
      }
    </style>
  </defs>
  <g id="Capa_2" data-name="Capa 2">
    <g id="Capa_1-2" data-name="Capa 1">
      <g>
        <path class="cls-1" d="M0,125.41c.69-5,1.16-10,2.11-14.94q11.55-60,63.82-91.86a15.5,15.5,0,0,1,21.51,5,16,16,0,0,1-5,22A105.39,105.39,0,0,0,47.35,79.83c-31.62,50.39-13.05,117.52,40,144.56,60.74,31,133.89-4.56,147-71.4,8.12-41.45-10.9-84.29-47.19-106.31-7.27-4.41-10.12-10.52-8.5-18.21,2.14-10.18,13.87-15.62,22.94-10a153.91,153.91,0,0,1,21.52,15.61c24.64,21.93,39,49.49,43.75,82.07.45,3.09.78,6.2,1.16,9.29v16.72c-.15.76-.34,1.51-.46,2.28-1.06,6.78-1.71,13.65-3.23,20.32-11.75,51.45-55,92-107.22,100.75-4.89.81-9.81,1.36-14.72,2H125.62c-.58-.14-1.15-.33-1.75-.42-6.11-.89-12.28-1.48-18.33-2.69C53.57,254,10.62,209.5,2.1,157.34,1.27,152.29.69,147.2,0,142.13Z"/>
        <path class="cls-1" d="M118.51,64c0-15.84,0-31.68,0-47.52,0-8.58,5-14.77,13-16.23A15.44,15.44,0,0,1,149.21,13a28.19,28.19,0,0,1,.27,3.9q0,47.25,0,94.52c0,8.41-4.24,14.31-11.57,16.29a15.33,15.33,0,0,1-19.17-12.81,50,50,0,0,1-.23-6Q118.49,86.44,118.51,64Z"/>
      </g>
    </g>
  </g>
</svg>
