<svg xmlns="http://www.w3.org/2000/svg" width="175.81" height="175.75" viewBox="0 0 175.81 175.75">
  <defs>
    <style>
      .cls-1 {
        fill: #e9b3fb;
        stroke: #333;
        stroke-miterlimit: 10;
        stroke-width: 6px;
      }
    </style>
  </defs>
  <g id="Capa_2" data-name="Capa 2">
    <g id="Capa_1-2" data-name="Capa 1">
      <path class="cls-1" d="M104.47,168.83l-20.4-15.18A19.66,19.66,0,0,0,66,150.82L41.93,159a19.66,19.66,0,0,1-25-24.9L25.08,110A19.66,19.66,0,0,0,22.19,92L7,71.61a19.67,19.67,0,0,1,16-31.45l25.42.29a19.65,19.65,0,0,0,16.29-8.33L79.28,11.34a19.66,19.66,0,0,1,34.84,5.47l7.58,24.26a19.69,19.69,0,0,0,13,12.92L159,61.5a19.66,19.66,0,0,1,5.57,34.82L143.79,111a19.65,19.65,0,0,0-8.28,16.32l.36,25.42A19.67,19.67,0,0,1,104.47,168.83Z"/>
    </g>
  </g>
</svg>
